<?xml version="1.0" encoding="UTF-8"?>
<svg width="123px" height="44px" viewBox="0 0 123 44" version="1.1" xmlns="http://www.w3.org/2000/svg" xmlns:xlink="http://www.w3.org/1999/xlink">
    <title>编组备份</title>
    <defs>
        <polygon id="path-1" points="0 44 123 44 123 0 0 0"></polygon>
    </defs>
    <g id="页面--绿色" stroke="none" stroke-width="1" fill="none" fill-rule="evenodd">
        <g id="编组备份">
            <path d="M50,25 L42.1045105,33.5000755 L50,42 L45.0105296,42 L37.1406569,33.5000755 L45.0105296,25 L50,25 Z M33,42 L37.1406569,42 L37.1406569,25 L33,25 L33,42 Z" id="Fill-1" fill="#FFF"></path>
            <g id="编组">
                <path d="M60.3966215,33.4301094 C60.3966215,32.8629221 60.2009988,32.3830767 59.8106678,31.9907263 C59.4198796,31.5988347 58.9419449,31.40243 58.3770161,31.40243 L56.8312318,31.40243 C56.2659983,31.40243 55.7880636,31.5988347 55.3977325,31.9907263 C55.0069444,32.3830767 54.8117788,32.8629221 54.8117788,33.4301094 L54.8117788,37.3100194 C54.8117788,37.8775127 55.0069444,38.357511 55.3977325,38.7494026 C55.7880636,39.1416001 56.2659983,39.3375458 56.8312318,39.3375458 L58.3770161,39.3375458 C58.9419449,39.3375458 59.4198796,39.1416001 59.8106678,38.7494026 C60.2009988,38.357511 60.3966215,37.8775127 60.3966215,37.3100194 L60.3966215,33.4301094 Z M62.4658942,29.2497798 C63.064341,29.6002183 63.5380097,30.0757807 63.8870529,30.6766199 C64.2362484,31.2773062 64.4106938,31.9283173 64.4106938,32.6291944 L64.4106938,38.1110874 C64.4106938,38.8119645 64.2362484,39.4626697 63.8870529,40.0635089 C63.5380097,40.6643481 63.064341,41.1397576 62.4658942,41.4901961 C61.8675999,41.8407876 61.2108015,42.0160834 60.4964134,42.0160834 L54.7119869,42.0160834 C53.997294,42.0160834 53.3447616,41.8407876 52.7548467,41.4901961 C52.1646271,41.1397576 51.6953766,40.6643481 51.3463335,40.0635089 C50.997138,39.4626697 50.8225402,38.8119645 50.8225402,38.1110874 L50.8225402,32.6291944 C50.8225402,31.9283173 50.997138,31.2773062 51.3463335,30.6766199 C51.6953766,30.0757807 52.1646271,29.6002183 52.7548467,29.2497798 C53.3447616,28.8993412 53.997294,28.7240455 54.7119869,28.7240455 L60.4964134,28.7240455 C61.2108015,28.7240455 61.8675999,28.8993412 62.4658942,29.2497798 L62.4658942,29.2497798 Z" id="Fill-2" fill="#FFF"></path>
                <path d="M72.7999327,27.8105037 C72.5919695,28.0192984 72.4883687,28.2735231 72.4883687,28.5737898 L72.4883687,28.7241525 L75.0564487,28.7241525 L75.0564487,31.4023841 L72.4883687,31.4023841 L72.4883687,42.0160375 L68.4991301,42.0160375 L68.4991301,31.4023841 L66.5046631,31.4023841 L66.5046631,28.7241525 L68.4991301,28.7241525 L68.4991301,28.5737898 C68.4991301,27.8900445 68.665196,27.2596834 68.9977849,26.6840831 C69.3302215,26.1083299 69.7831701,25.6494405 70.3566307,25.3072619 C70.9300914,24.9653893 71.5573331,24.7940706 72.2389651,24.7940706 L75.0564487,24.7940706 L75.0564487,27.4975411 L73.5604842,27.4975411 C73.2611085,27.4975411 73.0075913,27.6020149 72.7999327,27.8105037" id="Fill-4" fill="#FFF"></path>
                <path d="M86.4375556,33.918276 C86.6452142,33.7097872 86.7494244,33.4636695 86.7494244,33.1797699 L86.7494244,32.4539598 C86.7494244,32.1702132 86.6452142,31.9242485 86.4375556,31.7154538 C86.2297447,31.506965 85.9844547,31.4024912 85.7021426,31.4024912 L82.68538,31.4024912 C82.2697581,31.4024912 81.9124878,31.552701 81.6132645,31.8531206 C81.3140411,32.1535402 81.1645818,32.5125447 81.1645818,32.9295222 L81.1645818,34.2310856 L85.7021426,34.2310856 C85.9844547,34.2310856 86.2297447,34.1270707 86.4375556,33.918276 L86.4375556,33.918276 Z M88.1454446,28.7241066 C88.8767441,28.7241066 89.4957586,28.9787903 90.0029453,29.4875457 C90.5098272,29.99676 90.7634967,30.6182492 90.7634967,31.3524723 L90.7634967,34.2812575 C90.7634967,34.9988076 90.5098272,35.6166257 90.0029453,36.1334882 C89.4957586,36.6509625 88.8767441,36.9096231 88.1454446,36.9096231 L81.1645818,36.9096231 L81.1645818,37.810729 C81.1645818,38.2280124 81.3140411,38.586711 81.6132645,38.8869776 C81.9124878,39.1873972 82.2697581,39.337607 82.68538,39.337607 L90.4642733,39.337607 L90.4642733,42.0159916 L81.3638609,42.0159916 C80.5993482,42.0159916 79.8968437,41.8283058 79.257109,41.4529343 C78.6170696,41.0774098 78.11034,40.5686544 77.7363108,39.9257503 C77.3624339,39.283611 77.1753432,38.578451 77.1753432,37.810729 L77.1753432,32.9295222 C77.1753432,32.1621062 77.3624339,31.4567931 77.7363108,30.8143479 C78.11034,30.1720557 78.6170696,29.6628414 79.257109,29.2873169 C79.8968437,28.9119454 80.5993482,28.7241066 81.3638609,28.7241066 L88.1454446,28.7241066 Z" id="Fill-6" fill="#FFF"></path>
                <path d="M96.2197525,42.0160681 L93.8830984,42.0160681 C93.6608138,42.0160681 93.4805789,41.8351127 93.4805789,41.6120924 L93.4805789,39.2659438 C93.4805789,39.0429235 93.6608138,38.8621211 93.8830984,38.8621211 L96.2197525,38.8621211 C96.4418847,38.8621211 96.6221196,39.0429235 96.6221196,39.2659438 L96.6221196,41.6120924 C96.6221196,41.8351127 96.4418847,42.0160681 96.2197525,42.0160681" id="Fill-8" fill="#FFF"></path>
                <polygon id="Fill-10" fill="#FFF" points="113.525924 42.0160681 108.040721 28.9493449 103.652619 39.3375305 108.564514 39.3375305 109.810923 42.0160681 98.5414455 42.0160681 105.821836 24.7941012 110.234772 24.7941012 117.51501 42.0160681"></polygon>
                <path d="M119.48411,24.8190648 L122.526773,24.8190648 C122.788213,24.8190648 122.999985,25.0318365 122.999985,25.2941683 L122.999985,28.2489572 C122.999985,28.511442 122.788213,28.7240608 122.526773,28.7240608 L119.48411,28.7240608 C119.222671,28.7240608 119.010899,28.511442 119.010899,28.2489572 L119.010899,25.2941683 C119.010899,25.0318365 119.222671,24.8190648 119.48411,24.8190648" id="Fill-12" fill="#FFF"></path>
                <mask id="mask-2" fill="white">
                    <use xlink:href="#path-1"></use>
                </mask>
                <g id="Clip-15"></g>
                <polygon id="Fill-14" fill="#FFF" mask="url(#mask-2)" points="119.010761 42.0160681 123 42.0160681 123 29.7253269 119.010761 29.7253269"></polygon>
                <path d="M21.8946338,13.4903699 C23.1902527,14.0326243 23.9547653,14.6989317 23.9547653,15.419694 C23.9547653,17.2379668 19.0929951,18.7119197 13.09573,18.7119197 C7.09831259,18.7119197 2.23654231,17.2379668 2.23654231,15.419694 C2.23654231,14.6989317 3.0009026,14.0326243 4.29667385,13.4903699 C1.65729219,14.2219926 -1.52354055e-05,15.2780501 -1.52354055e-05,16.4523482 C-1.52354055e-05,18.6611359 5.8630259,20.4515694 13.09573,20.4515694 C20.3281294,20.4515694 26.1913229,18.6611359 26.1913229,16.4523482 C26.1913229,15.2780501 24.5338631,14.2219926 21.8946338,13.4903699" id="Fill-16" fill="#29623F" mask="url(#mask-2)"></path>
                <path d="M13.0956691,25.5215786 C15.3663539,25.5215786 17.2070956,27.2895265 17.2070956,29.470322 C17.2070956,31.6512705 15.3663539,33.4192184 13.0956691,33.4192184 C10.8249842,33.4192184 8.9842425,31.6512705 8.9842425,29.470322 C8.9842425,27.2895265 10.8249842,25.5215786 13.0956691,25.5215786 L13.0956691,25.5215786 Z M25.2030935,18.9053109 L25.167138,18.9053109 C23.182117,20.2810614 18.5246535,21.2468707 13.0956691,21.2468707 C7.66653227,21.2468707 3.00922114,20.2810614 1.02420014,18.9053109 L0.988244584,18.9053109 L7.21586898,42.724578 C7.36669949,43.4346329 9.94133068,43.9999847 13.0956691,43.9999847 C16.2500074,43.9999847 18.824791,43.4346329 18.9754691,42.724578 L25.2030935,18.9053109 Z" id="Fill-17" fill="#29623F" mask="url(#mask-2)"></path>
                <path d="M10.310515,4.58889418e-05 C10.310515,4.58889418e-05 15.1105819,3.46680248 13.6222351,7.05547069 C13.5763766,7.166216 13.5363075,7.27864391 13.5024849,7.39244849 C13.3722221,7.82961714 12.7708807,9.20766206 10.1206819,10.9350748 C10.1206819,10.9350748 5.30019955,13.9114316 4.99655791,14.4937622 C4.99655791,14.4937622 3.85771134,15.7878304 5.33813571,16.6614029 C5.33813571,16.6614029 8.32625581,18.4870179 16.4066579,17.5164668 C16.4066579,17.5164668 21.2186084,17.0289733 21.613053,15.3899733 C21.613053,15.3899733 20.2571019,17.5123368 11.2583096,16.7348252 C11.2583096,16.7348252 4.55244584,16.2725706 6.37688566,14.9696306 C6.37688566,14.9696306 10.0740615,12.3346875 11.280401,11.5825678 C11.5138074,11.4369469 11.7371584,11.2807715 11.9481688,11.1122061 C12.7390387,10.4801624 14.2964018,9.05362818 14.5826751,7.42686519 C14.5826751,7.42686519 15.8426432,2.39590754 10.310515,4.58889418e-05" id="Fill-18" fill="#29623F" mask="url(#mask-2)"></path>
                <path d="M15.4640738,0.618322898 C15.4640738,0.618322898 18.509022,2.18634804 18.6040909,5.18717891 C18.6040909,5.18717891 19.0798926,7.02548992 16.5424358,9.59374103 C16.5424358,9.59374103 14.0459622,12.1652044 13.183943,13.4274562 C12.9176281,13.8178181 12.8214927,14.2793079 12.9374341,14.7196888 C13.0328078,15.0825174 13.2739842,15.4682904 13.8463784,15.6224772 C13.8463784,15.6224772 13.2755078,14.2436675 14.1635796,13.2974375 C14.1635796,13.2974375 18.4209613,8.94303583 18.7473037,8.1650653 C18.7601014,8.1347786 18.7745751,8.10479783 18.7933146,8.07680557 C18.9299762,7.86984645 19.4726614,6.91627424 19.3335621,4.9979635 C19.3335621,4.9979635 18.6674702,1.72669381 15.4640738,0.618322898" id="Fill-19" fill="#29623F" mask="url(#mask-2)"></path>
                <polygon id="Fill-20" fill="#29623F" mask="url(#mask-2)" points="13.5708766 31.6017257 12.2132496 28.3674731 11.1271175 30.9387835 12.3427505 30.9387835 12.6514199 31.6017257 9.86196945 31.6017257 11.6640132 27.3391019 12.7562395 27.3391019 14.5581309 31.6017257"></polygon>
                <path d="M15.0456181,27.3451898 L15.7987042,27.3451898 C15.8634547,27.3451898 15.9158645,27.3979621 15.9158645,27.4628185 L15.9158645,28.1941353 C15.9158645,28.2591446 15.8634547,28.3117639 15.7987042,28.3117639 L15.0456181,28.3117639 C14.9808677,28.3117639 14.9284579,28.2591446 14.9284579,28.1941353 L14.9284579,27.4628185 C14.9284579,27.3979621 14.9808677,27.3451898 15.0456181,27.3451898" id="Fill-21" fill="#29623F" mask="url(#mask-2)"></path>
                <polygon id="Fill-22" fill="#29623F" mask="url(#mask-2)" points="14.9284122 31.6017257 15.9158188 31.6017257 15.9158188 28.5595948 14.9284122 28.5595948"></polygon>
            </g>
        </g>
    </g>
</svg>